<mxfile host="app.diagrams.net" modified="2023-05-01T05:11:48.703Z" agent="Mozilla/5.0 (Windows NT 10.0; Win64; x64) AppleWebKit/537.36 (KHTML, like Gecko) Chrome/112.0.0.0 Safari/537.36 Edg/112.0.1722.64" etag="HBkCE82A-jCOq_pvOA-B" version="21.2.3" type="github">
  <diagram name="第 1 页" id="z1gU27IknUlDDUsyJ2qZ">
    <mxGraphModel dx="581" dy="354" grid="1" gridSize="10" guides="1" tooltips="1" connect="1" arrows="1" fold="1" page="1" pageScale="1" pageWidth="1169" pageHeight="827" math="0" shadow="0">
      <root>
        <mxCell id="0" />
        <mxCell id="1" parent="0" />
        <mxCell id="ilJ0-Uzo2o-Ag8Pwz9IC-20" style="edgeStyle=orthogonalEdgeStyle;rounded=0;orthogonalLoop=1;jettySize=auto;html=1;exitX=0.5;exitY=1;exitDx=0;exitDy=0;entryX=0.5;entryY=0;entryDx=0;entryDy=0;dashed=1;" edge="1" parent="1" source="ilJ0-Uzo2o-Ag8Pwz9IC-1" target="ilJ0-Uzo2o-Ag8Pwz9IC-19">
          <mxGeometry relative="1" as="geometry" />
        </mxCell>
        <mxCell id="ilJ0-Uzo2o-Ag8Pwz9IC-1" value="线程A" style="rounded=1;whiteSpace=wrap;html=1;strokeColor=#FF3333;" vertex="1" parent="1">
          <mxGeometry x="400" y="130" width="50" height="30" as="geometry" />
        </mxCell>
        <mxCell id="ilJ0-Uzo2o-Ag8Pwz9IC-24" style="edgeStyle=orthogonalEdgeStyle;rounded=0;orthogonalLoop=1;jettySize=auto;html=1;exitX=0.5;exitY=1;exitDx=0;exitDy=0;entryX=0.5;entryY=0;entryDx=0;entryDy=0;dashed=1;" edge="1" parent="1" source="ilJ0-Uzo2o-Ag8Pwz9IC-2" target="ilJ0-Uzo2o-Ag8Pwz9IC-23">
          <mxGeometry relative="1" as="geometry" />
        </mxCell>
        <mxCell id="ilJ0-Uzo2o-Ag8Pwz9IC-2" value="线程B" style="rounded=1;whiteSpace=wrap;html=1;strokeColor=#0000FF;" vertex="1" parent="1">
          <mxGeometry x="530" y="130" width="45" height="30" as="geometry" />
        </mxCell>
        <mxCell id="ilJ0-Uzo2o-Ag8Pwz9IC-17" value="" style="group" vertex="1" connectable="0" parent="1">
          <mxGeometry x="280" y="160" width="80" height="40" as="geometry" />
        </mxCell>
        <mxCell id="ilJ0-Uzo2o-Ag8Pwz9IC-12" value="" style="group" vertex="1" connectable="0" parent="ilJ0-Uzo2o-Ag8Pwz9IC-17">
          <mxGeometry width="80" height="20" as="geometry" />
        </mxCell>
        <mxCell id="ilJ0-Uzo2o-Ag8Pwz9IC-7" value="&lt;font style=&quot;font-size: 11px;&quot;&gt;数据库&lt;/font&gt;" style="rounded=0;whiteSpace=wrap;html=1;fillColor=#dae8fc;strokeColor=#6c8ebf;" vertex="1" parent="ilJ0-Uzo2o-Ag8Pwz9IC-12">
          <mxGeometry width="50" height="20" as="geometry" />
        </mxCell>
        <mxCell id="ilJ0-Uzo2o-Ag8Pwz9IC-8" value="100" style="rounded=0;whiteSpace=wrap;html=1;" vertex="1" parent="ilJ0-Uzo2o-Ag8Pwz9IC-12">
          <mxGeometry x="50" width="30" height="20" as="geometry" />
        </mxCell>
        <mxCell id="ilJ0-Uzo2o-Ag8Pwz9IC-16" value="" style="group" vertex="1" connectable="0" parent="ilJ0-Uzo2o-Ag8Pwz9IC-17">
          <mxGeometry y="20" width="80" height="20" as="geometry" />
        </mxCell>
        <mxCell id="ilJ0-Uzo2o-Ag8Pwz9IC-13" value="" style="group;fillColor=#f8cecc;strokeColor=#b85450;container=0;" vertex="1" connectable="0" parent="ilJ0-Uzo2o-Ag8Pwz9IC-16">
          <mxGeometry width="80" height="20" as="geometry" />
        </mxCell>
        <mxCell id="ilJ0-Uzo2o-Ag8Pwz9IC-14" value="&lt;font style=&quot;font-size: 11px;&quot;&gt;缓存&lt;/font&gt;" style="rounded=0;whiteSpace=wrap;html=1;fillColor=#f8cecc;strokeColor=#b85450;container=0;" vertex="1" parent="ilJ0-Uzo2o-Ag8Pwz9IC-16">
          <mxGeometry width="50" height="20" as="geometry" />
        </mxCell>
        <mxCell id="ilJ0-Uzo2o-Ag8Pwz9IC-15" value="0" style="rounded=0;whiteSpace=wrap;html=1;container=0;" vertex="1" parent="ilJ0-Uzo2o-Ag8Pwz9IC-16">
          <mxGeometry x="50" width="30" height="20" as="geometry" />
        </mxCell>
        <mxCell id="ilJ0-Uzo2o-Ag8Pwz9IC-22" style="edgeStyle=orthogonalEdgeStyle;rounded=0;orthogonalLoop=1;jettySize=auto;html=1;exitX=0.5;exitY=1;exitDx=0;exitDy=0;entryX=0.5;entryY=0;entryDx=0;entryDy=0;dashed=1;" edge="1" parent="1" source="ilJ0-Uzo2o-Ag8Pwz9IC-19" target="ilJ0-Uzo2o-Ag8Pwz9IC-21">
          <mxGeometry relative="1" as="geometry" />
        </mxCell>
        <mxCell id="ilJ0-Uzo2o-Ag8Pwz9IC-19" value="数据库=100" style="rounded=0;whiteSpace=wrap;html=1;fillColor=#dae8fc;strokeColor=#6c8ebf;" vertex="1" parent="1">
          <mxGeometry x="385" y="180" width="80" height="20" as="geometry" />
        </mxCell>
        <mxCell id="ilJ0-Uzo2o-Ag8Pwz9IC-21" value="缓存=100" style="rounded=0;whiteSpace=wrap;html=1;fillColor=#f8cecc;strokeColor=#b85450;" vertex="1" parent="1">
          <mxGeometry x="385" y="360" width="80" height="20" as="geometry" />
        </mxCell>
        <mxCell id="ilJ0-Uzo2o-Ag8Pwz9IC-26" style="edgeStyle=orthogonalEdgeStyle;rounded=0;orthogonalLoop=1;jettySize=auto;html=1;exitX=0.5;exitY=1;exitDx=0;exitDy=0;entryX=0.5;entryY=0;entryDx=0;entryDy=0;dashed=1;" edge="1" parent="1" source="ilJ0-Uzo2o-Ag8Pwz9IC-23" target="ilJ0-Uzo2o-Ag8Pwz9IC-25">
          <mxGeometry relative="1" as="geometry" />
        </mxCell>
        <mxCell id="ilJ0-Uzo2o-Ag8Pwz9IC-23" value="数据库=80" style="rounded=0;whiteSpace=wrap;html=1;fillColor=#dae8fc;strokeColor=#6c8ebf;" vertex="1" parent="1">
          <mxGeometry x="512.5" y="220" width="80" height="20" as="geometry" />
        </mxCell>
        <mxCell id="ilJ0-Uzo2o-Ag8Pwz9IC-27" style="edgeStyle=orthogonalEdgeStyle;rounded=0;orthogonalLoop=1;jettySize=auto;html=1;exitX=0.5;exitY=1;exitDx=0;exitDy=0;dashed=1;endArrow=none;endFill=0;" edge="1" parent="1" source="ilJ0-Uzo2o-Ag8Pwz9IC-25">
          <mxGeometry relative="1" as="geometry">
            <mxPoint x="552.3333333333333" y="380" as="targetPoint" />
          </mxGeometry>
        </mxCell>
        <mxCell id="ilJ0-Uzo2o-Ag8Pwz9IC-25" value="缓存=80" style="rounded=0;whiteSpace=wrap;html=1;fillColor=#f8cecc;strokeColor=#b85450;" vertex="1" parent="1">
          <mxGeometry x="512.5" y="290" width="80" height="20" as="geometry" />
        </mxCell>
        <mxCell id="ilJ0-Uzo2o-Ag8Pwz9IC-28" value="" style="group" vertex="1" connectable="0" parent="1">
          <mxGeometry x="280" y="210" width="80" height="40" as="geometry" />
        </mxCell>
        <mxCell id="ilJ0-Uzo2o-Ag8Pwz9IC-29" value="" style="group" vertex="1" connectable="0" parent="ilJ0-Uzo2o-Ag8Pwz9IC-28">
          <mxGeometry width="80" height="20" as="geometry" />
        </mxCell>
        <mxCell id="ilJ0-Uzo2o-Ag8Pwz9IC-30" value="&lt;font style=&quot;font-size: 11px;&quot;&gt;数据库&lt;/font&gt;" style="rounded=0;whiteSpace=wrap;html=1;fillColor=#dae8fc;strokeColor=#6c8ebf;" vertex="1" parent="ilJ0-Uzo2o-Ag8Pwz9IC-29">
          <mxGeometry width="50" height="20" as="geometry" />
        </mxCell>
        <mxCell id="ilJ0-Uzo2o-Ag8Pwz9IC-31" value="80" style="rounded=0;whiteSpace=wrap;html=1;" vertex="1" parent="ilJ0-Uzo2o-Ag8Pwz9IC-29">
          <mxGeometry x="50" width="30" height="20" as="geometry" />
        </mxCell>
        <mxCell id="ilJ0-Uzo2o-Ag8Pwz9IC-32" value="" style="group" vertex="1" connectable="0" parent="ilJ0-Uzo2o-Ag8Pwz9IC-28">
          <mxGeometry y="20" width="80" height="20" as="geometry" />
        </mxCell>
        <mxCell id="ilJ0-Uzo2o-Ag8Pwz9IC-33" value="" style="group;fillColor=#f8cecc;strokeColor=#b85450;container=0;" vertex="1" connectable="0" parent="ilJ0-Uzo2o-Ag8Pwz9IC-32">
          <mxGeometry width="80" height="20" as="geometry" />
        </mxCell>
        <mxCell id="ilJ0-Uzo2o-Ag8Pwz9IC-34" value="&lt;font style=&quot;font-size: 11px;&quot;&gt;缓存&lt;/font&gt;" style="rounded=0;whiteSpace=wrap;html=1;fillColor=#f8cecc;strokeColor=#b85450;container=0;" vertex="1" parent="ilJ0-Uzo2o-Ag8Pwz9IC-32">
          <mxGeometry width="50" height="20" as="geometry" />
        </mxCell>
        <mxCell id="ilJ0-Uzo2o-Ag8Pwz9IC-35" value="0" style="rounded=0;whiteSpace=wrap;html=1;container=0;" vertex="1" parent="ilJ0-Uzo2o-Ag8Pwz9IC-32">
          <mxGeometry x="50" width="30" height="20" as="geometry" />
        </mxCell>
        <mxCell id="ilJ0-Uzo2o-Ag8Pwz9IC-36" value="" style="group" vertex="1" connectable="0" parent="1">
          <mxGeometry x="280" y="280" width="80" height="40" as="geometry" />
        </mxCell>
        <mxCell id="ilJ0-Uzo2o-Ag8Pwz9IC-37" value="" style="group" vertex="1" connectable="0" parent="ilJ0-Uzo2o-Ag8Pwz9IC-36">
          <mxGeometry width="80" height="20" as="geometry" />
        </mxCell>
        <mxCell id="ilJ0-Uzo2o-Ag8Pwz9IC-38" value="&lt;font style=&quot;font-size: 11px;&quot;&gt;数据库&lt;/font&gt;" style="rounded=0;whiteSpace=wrap;html=1;fillColor=#dae8fc;strokeColor=#6c8ebf;" vertex="1" parent="ilJ0-Uzo2o-Ag8Pwz9IC-37">
          <mxGeometry width="50" height="20" as="geometry" />
        </mxCell>
        <mxCell id="ilJ0-Uzo2o-Ag8Pwz9IC-39" value="80" style="rounded=0;whiteSpace=wrap;html=1;" vertex="1" parent="ilJ0-Uzo2o-Ag8Pwz9IC-37">
          <mxGeometry x="50" width="30" height="20" as="geometry" />
        </mxCell>
        <mxCell id="ilJ0-Uzo2o-Ag8Pwz9IC-40" value="" style="group" vertex="1" connectable="0" parent="ilJ0-Uzo2o-Ag8Pwz9IC-36">
          <mxGeometry y="20" width="80" height="20" as="geometry" />
        </mxCell>
        <mxCell id="ilJ0-Uzo2o-Ag8Pwz9IC-41" value="" style="group;fillColor=#f8cecc;strokeColor=#b85450;container=0;" vertex="1" connectable="0" parent="ilJ0-Uzo2o-Ag8Pwz9IC-40">
          <mxGeometry width="80" height="20" as="geometry" />
        </mxCell>
        <mxCell id="ilJ0-Uzo2o-Ag8Pwz9IC-42" value="&lt;font style=&quot;font-size: 11px;&quot;&gt;缓存&lt;/font&gt;" style="rounded=0;whiteSpace=wrap;html=1;fillColor=#f8cecc;strokeColor=#b85450;container=0;" vertex="1" parent="ilJ0-Uzo2o-Ag8Pwz9IC-40">
          <mxGeometry width="50" height="20" as="geometry" />
        </mxCell>
        <mxCell id="ilJ0-Uzo2o-Ag8Pwz9IC-43" value="80" style="rounded=0;whiteSpace=wrap;html=1;container=0;" vertex="1" parent="ilJ0-Uzo2o-Ag8Pwz9IC-40">
          <mxGeometry x="50" width="30" height="20" as="geometry" />
        </mxCell>
        <mxCell id="ilJ0-Uzo2o-Ag8Pwz9IC-44" value="" style="group" vertex="1" connectable="0" parent="1">
          <mxGeometry x="280" y="350" width="80" height="40" as="geometry" />
        </mxCell>
        <mxCell id="ilJ0-Uzo2o-Ag8Pwz9IC-45" value="" style="group" vertex="1" connectable="0" parent="ilJ0-Uzo2o-Ag8Pwz9IC-44">
          <mxGeometry width="80" height="20" as="geometry" />
        </mxCell>
        <mxCell id="ilJ0-Uzo2o-Ag8Pwz9IC-46" value="&lt;font style=&quot;font-size: 11px;&quot;&gt;数据库&lt;/font&gt;" style="rounded=0;whiteSpace=wrap;html=1;fillColor=#dae8fc;strokeColor=#6c8ebf;" vertex="1" parent="ilJ0-Uzo2o-Ag8Pwz9IC-45">
          <mxGeometry width="50" height="20" as="geometry" />
        </mxCell>
        <mxCell id="ilJ0-Uzo2o-Ag8Pwz9IC-47" value="80" style="rounded=0;whiteSpace=wrap;html=1;" vertex="1" parent="ilJ0-Uzo2o-Ag8Pwz9IC-45">
          <mxGeometry x="50" width="30" height="20" as="geometry" />
        </mxCell>
        <mxCell id="ilJ0-Uzo2o-Ag8Pwz9IC-48" value="" style="group" vertex="1" connectable="0" parent="ilJ0-Uzo2o-Ag8Pwz9IC-44">
          <mxGeometry y="20" width="80" height="20" as="geometry" />
        </mxCell>
        <mxCell id="ilJ0-Uzo2o-Ag8Pwz9IC-49" value="" style="group;fillColor=#f8cecc;strokeColor=#b85450;container=0;" vertex="1" connectable="0" parent="ilJ0-Uzo2o-Ag8Pwz9IC-48">
          <mxGeometry width="80" height="20" as="geometry" />
        </mxCell>
        <mxCell id="ilJ0-Uzo2o-Ag8Pwz9IC-50" value="&lt;font style=&quot;font-size: 11px;&quot;&gt;缓存&lt;/font&gt;" style="rounded=0;whiteSpace=wrap;html=1;fillColor=#f8cecc;strokeColor=#b85450;container=0;" vertex="1" parent="ilJ0-Uzo2o-Ag8Pwz9IC-48">
          <mxGeometry width="50" height="20" as="geometry" />
        </mxCell>
        <mxCell id="ilJ0-Uzo2o-Ag8Pwz9IC-51" value="100" style="rounded=0;whiteSpace=wrap;html=1;container=0;" vertex="1" parent="ilJ0-Uzo2o-Ag8Pwz9IC-48">
          <mxGeometry x="50" width="30" height="20" as="geometry" />
        </mxCell>
      </root>
    </mxGraphModel>
  </diagram>
</mxfile>
